<?xml version="1.0" encoding="utf-8"?><svg viewBox="0 0 42 42" xmlns="http://www.w3.org/2000/svg" xmlns:xlink="http://www.w3.org/1999/xlink"><style>:root>svg{display:none}:root>svg:target{display:block}</style><svg viewBox="0 0 42 42" id="facebook" xmlns="http://www.w3.org/2000/svg"><path d="M36.072 5.18H6.612a1.28 1.28 0 00-1.28 1.281v29.46c0 .708.572 1.28 1.28 1.28h29.46a1.28 1.28 0 001.28-1.28V6.46a1.28 1.28 0 00-1.28-1.28zm-3.698 9.346h-2.558c-2.005 0-2.394.953-2.394 2.354v3.086h4.787l-.624 4.83h-4.163v12.405h-4.99v-12.4h-4.176v-4.835h4.175v-3.563c0-4.134 2.526-6.388 6.216-6.388 1.77 0 3.286.132 3.73.192v4.32h-.003z"/></svg><svg viewBox="0 0 42 42" id="linkedin" xmlns="http://www.w3.org/2000/svg"><path d="M36.056 5.18H6.597a1.28 1.28 0 00-1.28 1.281v29.46c0 .708.572 1.28 1.28 1.28h29.46a1.28 1.28 0 001.28-1.28V6.46a1.28 1.28 0 00-1.28-1.28zM14.815 32.466h-4.752V17.184h4.752v15.282zM12.44 15.095a2.754 2.754 0 110-5.508 2.754 2.754 0 010 5.508zm20.161 17.37h-4.747v-7.432c0-1.773-.032-4.05-2.47-4.05-2.47 0-2.85 1.929-2.85 3.922v7.56h-4.742v-15.28h4.555v2.09h.064c.632-1.201 2.18-2.47 4.494-2.47 4.812 0 5.696 3.166 5.696 7.28v8.382z"/></svg><svg viewBox="0 0 42 42" id="twitter" xmlns="http://www.w3.org/2000/svg"><path d="M38.005 10.876a13.685 13.685 0 01-3.93 1.056 6.808 6.808 0 003.001-3.762 13.474 13.474 0 01-4.33 1.649 6.808 6.808 0 00-4.988-2.157 6.823 6.823 0 00-6.824 6.828c0 .528.064 1.057.168 1.565A19.396 19.396 0 017.029 8.91a6.777 6.777 0 00-.929 3.447 6.83 6.83 0 003.042 5.687 6.886 6.886 0 01-3.086-.868v.084a6.826 6.826 0 005.472 6.7 7.221 7.221 0 01-1.798.232c-.444 0-.864-.044-1.288-.104a6.837 6.837 0 006.38 4.735 13.68 13.68 0 01-8.474 2.918c-.572 0-1.1-.02-1.649-.084a19.327 19.327 0 0010.483 3.062c12.552 0 19.42-10.399 19.42-19.424 0-.297 0-.593-.02-.889a14.698 14.698 0 003.423-3.53z"/></svg></svg>